# xmcd
#
# Track frame offsets: 
#        150
#        13611
#        24319
#        38164
#        50873
#        61569
#        76257
#        88192
#        99741
#        111719
#        122477
#        135508
#        148979
#        163467
#        173776
#        186334
#        195180
#        206619
#        220631
#        231523
#        241988
#        250780
#        262652
#        271991
#        285670
#        297847
#        310031
#        320194
#        331506
#        343086
#        354055
#        362790
#
# Disc length: 4983 seconds
#
# Revision: 1
# Processed by: cddbd v1.5.2PL0 Copyright (c) Steve Scherf et al.
# Submitted via: ExactAudioCopyFreeDBPlugin 1.0
#
DISCID=dd137520
DTITLE=The Treniers - The Treniers Rock
DYEAR=2010
DGENRE=Rhythm and Blues
TTITLE0=Everybody Get Together
TTITLE1=Go! Go! Go! (1951)
TTITLE2=It Rocks! It Rolls! It Swings!
TTITLE3=Hadacole (That's All)
TTITLE4=This is It
TTITLE5=Rocking on Sunday Night
TTITLE6=Poon-Tang!
TTITLE7=Hi-Yo Silver
TTITLE8=Rockin' is Our Bizness
TTITLE9=The Moondog
TTITLE10=Squeeze Me
TTITLE11=Flip Our Wigs
TTITLE12=You're Killing Me
TTITLE13=Rock-A-Beatin' Boogie
TTITLE14=Bald Head
TTITLE15=Doin' 'em Up
TTITLE16=I Said No
TTITLE17=Straighten Up Baby
TTITLE18=Day Old Bread
TTITLE19=Go! Go! Go! (1954)
TTITLE20=Out of the Bushes
TTITLE21=Get Out of the Car
TTITLE22=Everything's Wild in Wildwood
TTITLE23=Good Rockin' Tonight
TTITLE24=Boodie Green
TTITLE25=Rock 'n' Roll Call
TTITLE26=Rock-A-Way
TTITLE27=Drink Wine Spo-Dee-O-Dee
TTITLE28=(We Want A) Rock and Roll President
TTITLE29=Madune
TTITLE30=Cool it Baby
TTITLE31=Rock Calypso Joe
EXTD=
EXTT0=
EXTT1=
EXTT2=
EXTT3=
EXTT4=
EXTT5=
EXTT6=
EXTT7=
EXTT8=
EXTT9=
EXTT10=
EXTT11=
EXTT12=
EXTT13=
EXTT14=
EXTT15=
EXTT16=
EXTT17=
EXTT18=
EXTT19=
EXTT20=
EXTT21=
EXTT22=
EXTT23=
EXTT24=
EXTT25=
EXTT26=
EXTT27=
EXTT28=
EXTT29=
EXTT30=
EXTT31=
PLAYORDER=
